<mxfile host="app.diagrams.net" modified="2024-02-29T09:46:06.101Z" agent="Mozilla/5.0 (Windows NT 10.0; Win64; x64) AppleWebKit/537.36 (KHTML, like Gecko) Chrome/122.0.0.0 Safari/537.36 Edg/122.0.0.0" etag="nyceBtnp5ApydkjBSDkI" version="23.0.1" type="device">
  <diagram name="Seite-1" id="LDu3xiUu3RCNs183H0bi">
    <mxGraphModel dx="784" dy="594" grid="1" gridSize="10" guides="1" tooltips="1" connect="1" arrows="1" fold="1" page="1" pageScale="1" pageWidth="827" pageHeight="1169" math="0" shadow="0">
      <root>
        <mxCell id="0" />
        <mxCell id="1" parent="0" />
        <mxCell id="xHPnbuRE7HniOLwfkd7a-1" value="" style="rounded=0;whiteSpace=wrap;html=1;" vertex="1" parent="1">
          <mxGeometry x="120" y="90" width="630" height="420" as="geometry" />
        </mxCell>
        <mxCell id="xHPnbuRE7HniOLwfkd7a-2" value="Bauern" style="shape=umlActor;verticalLabelPosition=bottom;verticalAlign=top;html=1;outlineConnect=0;" vertex="1" parent="1">
          <mxGeometry x="40" y="130" width="30" height="60" as="geometry" />
        </mxCell>
        <mxCell id="xHPnbuRE7HniOLwfkd7a-3" value="Pendler" style="shape=umlActor;verticalLabelPosition=bottom;verticalAlign=top;html=1;outlineConnect=0;" vertex="1" parent="1">
          <mxGeometry x="780" y="110" width="30" height="60" as="geometry" />
        </mxCell>
        <mxCell id="xHPnbuRE7HniOLwfkd7a-4" value="LÃ¤den" style="shape=umlActor;verticalLabelPosition=bottom;verticalAlign=top;html=1;outlineConnect=0;" vertex="1" parent="1">
          <mxGeometry x="780" y="360" width="30" height="60" as="geometry" />
        </mxCell>
        <mxCell id="xHPnbuRE7HniOLwfkd7a-5" value="Registrieren" style="ellipse;whiteSpace=wrap;html=1;" vertex="1" parent="1">
          <mxGeometry x="360" y="110" width="120" height="80" as="geometry" />
        </mxCell>
        <mxCell id="xHPnbuRE7HniOLwfkd7a-8" value="" style="endArrow=none;html=1;rounded=0;entryX=0;entryY=0.5;entryDx=0;entryDy=0;" edge="1" parent="1" target="xHPnbuRE7HniOLwfkd7a-5">
          <mxGeometry width="50" height="50" relative="1" as="geometry">
            <mxPoint x="90" y="170" as="sourcePoint" />
            <mxPoint x="440" y="220" as="targetPoint" />
          </mxGeometry>
        </mxCell>
        <mxCell id="xHPnbuRE7HniOLwfkd7a-9" value="" style="endArrow=none;html=1;rounded=0;exitX=1;exitY=0.5;exitDx=0;exitDy=0;" edge="1" parent="1" source="xHPnbuRE7HniOLwfkd7a-5">
          <mxGeometry width="50" height="50" relative="1" as="geometry">
            <mxPoint x="390" y="270" as="sourcePoint" />
            <mxPoint x="770" y="150" as="targetPoint" />
          </mxGeometry>
        </mxCell>
        <mxCell id="xHPnbuRE7HniOLwfkd7a-10" value="" style="endArrow=none;html=1;rounded=0;exitX=1;exitY=1;exitDx=0;exitDy=0;" edge="1" parent="1" source="xHPnbuRE7HniOLwfkd7a-5">
          <mxGeometry width="50" height="50" relative="1" as="geometry">
            <mxPoint x="390" y="310" as="sourcePoint" />
            <mxPoint x="770" y="400" as="targetPoint" />
          </mxGeometry>
        </mxCell>
        <mxCell id="xHPnbuRE7HniOLwfkd7a-11" value="Bestellung&amp;nbsp;&lt;br&gt;annehmen" style="ellipse;whiteSpace=wrap;html=1;" vertex="1" parent="1">
          <mxGeometry x="210" y="270" width="120" height="80" as="geometry" />
        </mxCell>
        <mxCell id="xHPnbuRE7HniOLwfkd7a-12" value="" style="endArrow=none;html=1;rounded=0;" edge="1" parent="1" source="xHPnbuRE7HniOLwfkd7a-11">
          <mxGeometry width="50" height="50" relative="1" as="geometry">
            <mxPoint x="410" y="330" as="sourcePoint" />
            <mxPoint x="90" y="190" as="targetPoint" />
          </mxGeometry>
        </mxCell>
        <mxCell id="xHPnbuRE7HniOLwfkd7a-13" value="" style="endArrow=none;html=1;rounded=0;exitX=0.953;exitY=0.332;exitDx=0;exitDy=0;exitPerimeter=0;" edge="1" parent="1" source="xHPnbuRE7HniOLwfkd7a-14">
          <mxGeometry width="50" height="50" relative="1" as="geometry">
            <mxPoint x="410" y="330" as="sourcePoint" />
            <mxPoint x="770" y="160" as="targetPoint" />
          </mxGeometry>
        </mxCell>
        <mxCell id="xHPnbuRE7HniOLwfkd7a-14" value="LIeferung&lt;br&gt;annehmen" style="ellipse;whiteSpace=wrap;html=1;" vertex="1" parent="1">
          <mxGeometry x="580" y="190" width="120" height="80" as="geometry" />
        </mxCell>
        <mxCell id="xHPnbuRE7HniOLwfkd7a-15" value="Bestellung&lt;br&gt;aufgeben" style="ellipse;whiteSpace=wrap;html=1;" vertex="1" parent="1">
          <mxGeometry x="375" y="390" width="120" height="80" as="geometry" />
        </mxCell>
        <mxCell id="xHPnbuRE7HniOLwfkd7a-16" value="" style="endArrow=none;html=1;rounded=0;exitX=0.946;exitY=0.662;exitDx=0;exitDy=0;exitPerimeter=0;" edge="1" parent="1" source="xHPnbuRE7HniOLwfkd7a-15">
          <mxGeometry width="50" height="50" relative="1" as="geometry">
            <mxPoint x="410" y="330" as="sourcePoint" />
            <mxPoint x="760" y="410" as="targetPoint" />
          </mxGeometry>
        </mxCell>
        <mxCell id="xHPnbuRE7HniOLwfkd7a-17" value="myfarm App" style="text;html=1;align=center;verticalAlign=middle;resizable=0;points=[];autosize=1;strokeColor=none;fillColor=none;" vertex="1" parent="1">
          <mxGeometry x="390" y="60" width="90" height="30" as="geometry" />
        </mxCell>
        <mxCell id="xHPnbuRE7HniOLwfkd7a-19" value="" style="endArrow=none;html=1;rounded=0;entryX=0.749;entryY=0.949;entryDx=0;entryDy=0;entryPerimeter=0;" edge="1" parent="1" target="xHPnbuRE7HniOLwfkd7a-14">
          <mxGeometry width="50" height="50" relative="1" as="geometry">
            <mxPoint x="770" y="360" as="sourcePoint" />
            <mxPoint x="460" y="280" as="targetPoint" />
          </mxGeometry>
        </mxCell>
        <mxCell id="xHPnbuRE7HniOLwfkd7a-20" value="Bezahlen" style="ellipse;whiteSpace=wrap;html=1;" vertex="1" parent="1">
          <mxGeometry x="380" y="280" width="120" height="80" as="geometry" />
        </mxCell>
        <mxCell id="xHPnbuRE7HniOLwfkd7a-22" value="" style="endArrow=classic;html=1;rounded=0;exitX=0.031;exitY=0.731;exitDx=0;exitDy=0;exitPerimeter=0;entryX=0.775;entryY=0.084;entryDx=0;entryDy=0;entryPerimeter=0;dashed=1;dashPattern=8 8;" edge="1" parent="1" source="xHPnbuRE7HniOLwfkd7a-14" target="xHPnbuRE7HniOLwfkd7a-20">
          <mxGeometry relative="1" as="geometry">
            <mxPoint x="390" y="310" as="sourcePoint" />
            <mxPoint x="490" y="310" as="targetPoint" />
          </mxGeometry>
        </mxCell>
        <mxCell id="xHPnbuRE7HniOLwfkd7a-23" value="i&amp;lt;&amp;lt;include&amp;gt;&amp;gt;" style="edgeLabel;resizable=0;html=1;align=center;verticalAlign=middle;" connectable="0" vertex="1" parent="xHPnbuRE7HniOLwfkd7a-22">
          <mxGeometry relative="1" as="geometry" />
        </mxCell>
        <mxCell id="xHPnbuRE7HniOLwfkd7a-24" value="Auftrag annehmen" style="ellipse;whiteSpace=wrap;html=1;" vertex="1" parent="1">
          <mxGeometry x="310" y="190" width="120" height="80" as="geometry" />
        </mxCell>
        <mxCell id="xHPnbuRE7HniOLwfkd7a-25" value="" style="endArrow=none;html=1;rounded=0;exitX=1;exitY=0.5;exitDx=0;exitDy=0;" edge="1" parent="1" source="xHPnbuRE7HniOLwfkd7a-24">
          <mxGeometry width="50" height="50" relative="1" as="geometry">
            <mxPoint x="430" y="210" as="sourcePoint" />
            <mxPoint x="770" y="150" as="targetPoint" />
          </mxGeometry>
        </mxCell>
      </root>
    </mxGraphModel>
  </diagram>
</mxfile>
